<svg viewBox="7 7 93 26" fill="none" xmlns="http://www.w3.org/2000/svg">
<path d="M14.8571 14.8571H8C8 11.0705 11.0705 8 14.8571 8V14.8571Z" fill="white"/>
<path d="M23.4286 8V14.8571C19.6419 14.8571 16.5714 11.7867 16.5714 8H23.4286Z" fill="white"/>
<path d="M14.8571 16.5714V23.4286C11.0705 23.4286 8 20.3581 8 16.5714H14.8571Z" fill="white"/>
<path d="M25.1429 25.1429H32C32 28.9295 28.9295 32 25.1429 32V25.1429Z" fill="white"/>
<path d="M16.5714 32V25.1429C20.3581 25.1429 23.4286 28.2133 23.4286 32H16.5714Z" fill="white"/>
<path d="M25.1429 23.4286V16.5714C28.9295 16.5714 32 19.6419 32 23.4286H25.1429Z" fill="white"/>
<path d="M23.4286 16.5714H16.5714V23.4286H23.4286V16.5714Z" fill="white"/>
<path d="M47.6286 22.5257C47.6724 25.1238 49.1981 26.4248 52.2133 26.4248C53.6457 26.4248 54.6571 26.1962 55.2495 25.7352C55.8419 25.2743 56.1371 24.6 56.1371 23.7086C56.1371 22.9486 55.9238 22.3657 55.501 21.9581C55.0781 21.5486 54.4057 21.2648 53.4819 21.1048L50.04 20.581C48.7829 20.3905 47.8495 19.981 47.2457 19.3543C46.64 18.7276 46.3352 17.8667 46.3352 16.7695C46.3352 15.9657 46.539 15.2476 46.9486 14.6133C47.3581 13.979 47.979 13.4781 48.8114 13.1143C49.6438 12.7505 50.6667 12.5676 51.88 12.5676C53.7219 12.5676 55.139 12.9905 56.1352 13.8381C57.1276 14.6857 57.6781 15.8381 57.781 17.2971H56.0286C55.9257 16.261 55.5333 15.4495 54.8571 14.8667C54.1771 14.2838 53.179 13.9905 51.8629 13.9905C50.619 13.9905 49.6952 14.2362 49.0895 14.7257C48.4819 15.2152 48.179 15.8819 48.179 16.7295C48.179 18.0305 48.9086 18.7943 50.3714 19.0305L54.0133 19.5771C55.3429 19.7962 56.339 20.2152 56.9962 20.8362C57.6533 21.4571 57.9829 22.3352 57.9829 23.4762C57.9829 26.3981 56.061 27.8552 52.2152 27.8552C49.9924 27.8552 48.3771 27.3638 47.3695 26.3771C46.36 25.3905 45.8571 24.1105 45.8571 22.5333H47.6324V22.5257H47.6286Z" fill="white"/>
<path d="M59.8229 26.92C59.1562 26.3657 58.8248 25.5848 58.8248 24.5771C58.8248 23.6724 59.0895 22.9467 59.6229 22.4C60.1562 21.8533 60.9981 21.4838 62.1543 21.2952L64.9352 20.8343C65.5352 20.7314 65.9581 20.5867 66.2057 20.3962C66.4533 20.2057 66.579 19.9086 66.579 19.499C66.579 18.8857 66.3771 18.4038 65.9771 18.0552C65.5733 17.7048 64.8781 17.5314 63.8857 17.5314C61.9714 17.5314 60.9486 18.339 60.819 19.96H59.0876C59.1181 18.779 59.541 17.8495 60.3581 17.1695C61.1752 16.4914 62.3314 16.1505 63.819 16.1505C65.3067 16.1505 66.3524 16.4533 67.0838 17.059C67.8133 17.6667 68.181 18.4781 68.181 19.499V24.7543C68.181 25.7029 68.2248 26.6095 68.3143 27.4667H66.7143C66.6114 26.3714 66.5619 25.5181 66.5619 24.9067C66.3143 25.6952 65.8514 26.3657 65.181 26.9219C64.5105 27.4762 63.5943 27.7524 62.4438 27.7524C61.3638 27.7524 60.4914 27.4743 59.8248 26.9219H59.8229V26.92ZM64.8743 25.8019C65.4438 25.4248 65.8724 24.9181 66.1562 24.2933C66.44 23.6667 66.5848 22.9943 66.5848 22.2781V21.3371C66.3219 21.5276 66.04 21.6743 65.7429 21.7752C65.4438 21.8781 65.0648 21.979 64.6152 22.0819L62.7981 22.4552C62.0381 22.6152 61.4838 22.8533 61.1314 23.1676C60.781 23.4819 60.6057 23.9295 60.6057 24.5143C60.6057 25.099 60.8019 25.5905 61.1962 25.9048C61.5905 26.219 62.1238 26.3771 62.7962 26.3771C63.6133 26.3771 64.3067 26.1867 64.8762 25.8095V25.8038L64.8743 25.8019Z" fill="white"/>
<path d="M79.2819 17.7714C80.1257 18.8305 80.5467 20.2476 80.5467 22.0171C80.5467 23.7867 80.1257 25.1848 79.2819 26.2533C78.4381 27.3219 77.1962 27.8552 75.5543 27.8552C74.5638 27.8552 73.7257 27.6419 73.0362 27.219C72.3467 26.7962 71.8095 26.1867 71.4324 25.3981V27.5029H69.6876V12.1448H71.4324V18.619C71.8095 17.8286 72.3448 17.2248 73.0362 16.8095C73.7257 16.3924 74.5638 16.1848 75.5543 16.1848C77.1962 16.1848 78.4419 16.7162 79.2819 17.7752V17.7714ZM77.9181 25.3429C78.4933 24.6171 78.779 23.5124 78.779 22.0171C78.779 20.5219 78.4933 19.4171 77.9181 18.6914C77.3429 17.9657 76.44 17.6038 75.2019 17.6038C73.9638 17.6038 73.0819 17.9638 72.4229 18.68C71.76 19.3962 71.4305 20.5086 71.4305 22.0171C71.4305 23.5257 71.76 24.6343 72.4229 25.3543C73.0857 26.0705 74.0114 26.4305 75.2019 26.4305C76.3924 26.4305 77.3429 26.0686 77.9181 25.3429Z" fill="white"/>
<path d="M90.1105 24.1181H91.7048C91.5733 25.1295 91.099 26.0057 90.2838 26.7467C89.4686 27.4876 88.2381 27.8552 86.5943 27.8552C84.8057 27.8552 83.4533 27.3181 82.5448 26.2381C81.6362 25.16 81.179 23.7429 81.179 21.981C81.179 20.8667 81.3829 19.8705 81.7905 18.9886C82.1981 18.1067 82.8095 17.4171 83.6229 16.9086C84.4381 16.4038 85.4286 16.1486 86.5943 16.1486C87.6571 16.1486 88.5771 16.379 89.3562 16.8419C90.1352 17.3048 90.7238 17.9486 91.1238 18.7771C91.5238 19.6057 91.7238 20.5543 91.7238 21.6248C91.7238 21.9638 91.7105 22.219 91.68 22.3962H82.9029C82.96 23.8457 83.3124 24.8971 83.9619 25.541C84.6076 26.1867 85.5086 26.5086 86.659 26.5086C88.581 26.5086 89.7314 25.7105 90.1086 24.1105V24.1162L90.1105 24.1181ZM84.0629 18.3562C83.4381 18.9276 83.0667 19.8362 82.9505 21.0819H90.0248C89.9371 18.6914 88.8019 17.4971 86.619 17.4971C85.5429 17.4971 84.6895 17.7829 84.0648 18.3543H84.0629V18.3562Z" fill="white"/>
<path d="M99 16.3619V18.0876H98.541C97.0457 18.0438 96.019 18.4895 95.461 19.421C94.901 20.3524 94.6248 21.6838 94.6248 23.4152V27.4324H92.8838V16.5124H94.6248V19.3943C94.9733 18.4476 95.4781 17.7067 96.1371 17.1676C96.7981 16.6286 97.6229 16.36 98.6076 16.36H99V16.3619Z" fill="white"/>
</svg>
